<?xml version="1.0" encoding="UTF-8"?>
<svg xmlns="http://www.w3.org/2000/svg" width="204" height="85" viewBox="0 0 203.84 84.80" role="img" aria-label="IMTXI">
  <title>IMTXI — Institute for Immersive Therapeutics</title>
  <g transform="translate(12.00 12.00)" fill="#10243E">
    <path d="M2.176 8.64 6.912 9.216000000000001C7.104 14.271999999999998 7.104 21.248 7.104 27.072000000000003V29.888C7.104 35.84 7.104 43.008 6.912 48.128L2.176 48.704V49.92H18.624V48.704L13.952 48.128C13.76 43.072 13.696 35.84 13.696 29.888V27.072000000000003C13.696 21.248 13.76 14.271999999999998 13.952 9.216000000000001L18.624 8.64V7.4239999999999995H2.176Z" fill="#10243E"/>
    <path d="M25.6 49.92H37.568V48.704L32.448 48.128V12.480000000000004L45.760000000000005 49.92H48.128L61.44 12.032000000000004V29.888C61.44 35.84 61.376 43.072 61.184 48.128L56.832 48.704V49.92H72.96000000000001V48.704L68.28800000000001 48.128C68.096 43.072 68.03200000000001 35.84 68.03200000000001 29.888V27.072000000000003C68.03200000000001 21.248 68.096 14.271999999999998 68.28800000000001 9.216000000000001L72.96000000000001 8.64V7.4239999999999995H61.184L49.408 40.448L37.76 7.4239999999999995H25.6V8.64L30.592 9.280000000000001V48.128L25.6 48.704Z" fill="#10243E"/>
    <path d="M79.296 19.648H80.512L84.54400000000001 9.024000000000001H92.608C92.80000000000001 14.079999999999998 92.80000000000001 21.184 92.80000000000001 27.072000000000003V29.888C92.80000000000001 35.84 92.80000000000001 43.008 92.608 48.064L87.168 48.704V49.92H105.024V48.704L99.64800000000001 48.064C99.456 43.008 99.39200000000001 35.84 99.39200000000001 29.888V27.072000000000003C99.39200000000001 21.184 99.456 14.079999999999998 99.64800000000001 9.024000000000001H107.712L111.744 19.648H112.96000000000001L112.19200000000001 7.4239999999999995H80.06400000000001Z" fill="#10243E"/>
    <path d="M118.46400000000001 8.64 122.43200000000002 9.216000000000001 133.76000000000002 29.632 122.49600000000001 48.064 117.82400000000001 48.704V49.92H129.92000000000002V48.704L124.67200000000001 48.064L134.72000000000003 31.296000000000003L144.0 48.128L138.94400000000002 48.704V49.92H155.64800000000002V48.704L151.488 48.128L139.39200000000002 26.240000000000002L149.632 9.280000000000001L154.368 8.64V7.4239999999999995H142.27200000000002V8.64L147.45600000000002 9.280000000000001L138.496 24.576L129.984 9.216000000000001L135.04000000000002 8.64V7.4239999999999995H118.46400000000001Z" fill="#10243E"/>
    <path d="M161.152 8.64 165.888 9.216000000000001C166.08 14.271999999999998 166.08 21.248 166.08 27.072000000000003V29.888C166.08 35.84 166.08 43.008 165.888 48.128L161.152 48.704V49.92H177.6V48.704L172.928 48.128C172.736 43.072 172.672 35.84 172.672 29.888V27.072000000000003C172.672 21.248 172.736 14.271999999999998 172.928 9.216000000000001L177.6 8.64V7.4239999999999995H161.152Z" fill="#10243E"/>
  </g>
</svg>
